<mxfile host="app.diagrams.net" modified="2022-03-07T03:04:53.536Z" agent="5.0 (Windows NT 10.0; Win64; x64) AppleWebKit/537.36 (KHTML, like Gecko) Chrome/99.0.4844.51 Safari/537.36 Edg/99.0.1150.30" etag="SeWhbuLaa06duyq6VTjl" version="16.6.6" type="github">
  <diagram id="MLZw-miqqZ6JNHngjDAe" name="Page-1">
    <mxGraphModel dx="1422" dy="762" grid="1" gridSize="10" guides="1" tooltips="1" connect="1" arrows="1" fold="1" page="1" pageScale="1" pageWidth="827" pageHeight="1169" math="0" shadow="0">
      <root>
        <mxCell id="0" />
        <mxCell id="1" parent="0" />
        <mxCell id="csZ-udi4UrElq1uX5v0Q-14" value="" style="shape=process;whiteSpace=wrap;html=1;backgroundOutline=1;" vertex="1" parent="1">
          <mxGeometry x="15" y="170" width="170" height="150" as="geometry" />
        </mxCell>
        <mxCell id="csZ-udi4UrElq1uX5v0Q-13" value="" style="shape=process;whiteSpace=wrap;html=1;backgroundOutline=1;" vertex="1" parent="1">
          <mxGeometry x="310" y="120" width="120" height="200" as="geometry" />
        </mxCell>
        <mxCell id="csZ-udi4UrElq1uX5v0Q-1" value="非结构化数据" style="shape=parallelogram;perimeter=parallelogramPerimeter;whiteSpace=wrap;html=1;fixedSize=1;" vertex="1" parent="1">
          <mxGeometry x="40" y="260" width="120" height="40" as="geometry" />
        </mxCell>
        <mxCell id="csZ-udi4UrElq1uX5v0Q-15" value="" style="edgeStyle=orthogonalEdgeStyle;rounded=0;orthogonalLoop=1;jettySize=auto;html=1;" edge="1" parent="1" source="csZ-udi4UrElq1uX5v0Q-2" target="csZ-udi4UrElq1uX5v0Q-1">
          <mxGeometry relative="1" as="geometry" />
        </mxCell>
        <mxCell id="csZ-udi4UrElq1uX5v0Q-2" value="半结构化数据" style="shape=parallelogram;perimeter=parallelogramPerimeter;whiteSpace=wrap;html=1;fixedSize=1;" vertex="1" parent="1">
          <mxGeometry x="40" y="190" width="120" height="40" as="geometry" />
        </mxCell>
        <mxCell id="csZ-udi4UrElq1uX5v0Q-5" value="实体抽取" style="rounded=0;whiteSpace=wrap;html=1;" vertex="1" parent="1">
          <mxGeometry x="335" y="140" width="70" height="40" as="geometry" />
        </mxCell>
        <mxCell id="csZ-udi4UrElq1uX5v0Q-6" value="关系抽取" style="rounded=0;whiteSpace=wrap;html=1;" vertex="1" parent="1">
          <mxGeometry x="335" y="200" width="70" height="40" as="geometry" />
        </mxCell>
        <mxCell id="csZ-udi4UrElq1uX5v0Q-7" value="属性抽取" style="rounded=0;whiteSpace=wrap;html=1;" vertex="1" parent="1">
          <mxGeometry x="335" y="260" width="70" height="40" as="geometry" />
        </mxCell>
        <mxCell id="csZ-udi4UrElq1uX5v0Q-8" style="edgeStyle=orthogonalEdgeStyle;rounded=0;orthogonalLoop=1;jettySize=auto;html=1;exitX=0.5;exitY=1;exitDx=0;exitDy=0;" edge="1" parent="1">
          <mxGeometry relative="1" as="geometry">
            <mxPoint x="380" y="330" as="sourcePoint" />
            <mxPoint x="380" y="330" as="targetPoint" />
          </mxGeometry>
        </mxCell>
        <mxCell id="csZ-udi4UrElq1uX5v0Q-16" style="edgeStyle=orthogonalEdgeStyle;rounded=0;orthogonalLoop=1;jettySize=auto;html=1;exitX=1;exitY=0.5;exitDx=0;exitDy=0;entryX=0;entryY=0.5;entryDx=0;entryDy=0;" edge="1" parent="1" source="csZ-udi4UrElq1uX5v0Q-10" target="csZ-udi4UrElq1uX5v0Q-5">
          <mxGeometry relative="1" as="geometry" />
        </mxCell>
        <mxCell id="csZ-udi4UrElq1uX5v0Q-10" value="结构化数据" style="shape=parallelogram;perimeter=parallelogramPerimeter;whiteSpace=wrap;html=1;fixedSize=1;" vertex="1" parent="1">
          <mxGeometry x="40" y="120" width="120" height="40" as="geometry" />
        </mxCell>
        <mxCell id="csZ-udi4UrElq1uX5v0Q-17" value="" style="shape=flexArrow;endArrow=classic;html=1;rounded=0;" edge="1" parent="1">
          <mxGeometry width="50" height="50" relative="1" as="geometry">
            <mxPoint x="200" y="244.5" as="sourcePoint" />
            <mxPoint x="300" y="245" as="targetPoint" />
          </mxGeometry>
        </mxCell>
        <mxCell id="csZ-udi4UrElq1uX5v0Q-18" value="" style="shape=flexArrow;endArrow=classic;html=1;rounded=0;" edge="1" parent="1">
          <mxGeometry width="50" height="50" relative="1" as="geometry">
            <mxPoint x="460" y="219.5" as="sourcePoint" />
            <mxPoint x="560" y="220" as="targetPoint" />
          </mxGeometry>
        </mxCell>
        <mxCell id="csZ-udi4UrElq1uX5v0Q-20" value="数据层" style="shape=cylinder3;whiteSpace=wrap;html=1;boundedLbl=1;backgroundOutline=1;size=15;" vertex="1" parent="1">
          <mxGeometry x="590" y="120" width="130" height="200" as="geometry" />
        </mxCell>
        <mxCell id="csZ-udi4UrElq1uX5v0Q-21" value="" style="shape=process;whiteSpace=wrap;html=1;backgroundOutline=1;" vertex="1" parent="1">
          <mxGeometry x="590" y="430" width="130" height="160" as="geometry" />
        </mxCell>
        <mxCell id="csZ-udi4UrElq1uX5v0Q-22" value="框架构建" style="rounded=0;whiteSpace=wrap;html=1;" vertex="1" parent="1">
          <mxGeometry x="620" y="450" width="70" height="40" as="geometry" />
        </mxCell>
        <mxCell id="csZ-udi4UrElq1uX5v0Q-23" value="质量评估" style="rounded=0;whiteSpace=wrap;html=1;" vertex="1" parent="1">
          <mxGeometry x="620" y="530" width="70" height="40" as="geometry" />
        </mxCell>
        <mxCell id="csZ-udi4UrElq1uX5v0Q-24" value="" style="shape=flexArrow;endArrow=classic;html=1;rounded=0;" edge="1" parent="1">
          <mxGeometry width="50" height="50" relative="1" as="geometry">
            <mxPoint x="660" y="330" as="sourcePoint" />
            <mxPoint x="660" y="420" as="targetPoint" />
          </mxGeometry>
        </mxCell>
        <mxCell id="csZ-udi4UrElq1uX5v0Q-25" value="知识图谱" style="shape=cylinder3;whiteSpace=wrap;html=1;boundedLbl=1;backgroundOutline=1;size=15;" vertex="1" parent="1">
          <mxGeometry x="310" y="430" width="130" height="160" as="geometry" />
        </mxCell>
        <mxCell id="csZ-udi4UrElq1uX5v0Q-26" value="" style="shape=flexArrow;endArrow=classic;html=1;rounded=0;" edge="1" parent="1">
          <mxGeometry width="50" height="50" relative="1" as="geometry">
            <mxPoint x="560" y="510" as="sourcePoint" />
            <mxPoint x="460" y="510" as="targetPoint" />
          </mxGeometry>
        </mxCell>
      </root>
    </mxGraphModel>
  </diagram>
</mxfile>
